<?xml version="1.0" encoding="UTF-8" standalone="no"?>
<!-- Created with Inkscape (http://www.inkscape.org/) -->

<svg
   xmlns:osb="http://www.openswatchbook.org/uri/2009/osb"
   xmlns:dc="http://purl.org/dc/elements/1.1/"
   xmlns:cc="http://creativecommons.org/ns#"
   xmlns:rdf="http://www.w3.org/1999/02/22-rdf-syntax-ns#"
   xmlns:svg="http://www.w3.org/2000/svg"
   xmlns="http://www.w3.org/2000/svg"
   xmlns:sodipodi="http://sodipodi.sourceforge.net/DTD/sodipodi-0.dtd"
   xmlns:inkscape="http://www.inkscape.org/namespaces/inkscape"
   width="210mm"
   height="297mm"
   viewBox="0 0 210 297"
   version="1.1"
   id="svg8"
   inkscape:version="0.92.5 (2060ec1f9f, 2020-04-08)"
   sodipodi:docname="404.svg">
  <defs
     id="defs2">
    <linearGradient
       id="linearGradient4554"
       osb:paint="solid">
      <stop
         style="stop-color:#4f5500;stop-opacity:1;"
         offset="0"
         id="stop4552" />
    </linearGradient>
    <filter
       inkscape:collect="always"
       style="color-interpolation-filters:sRGB"
       id="filter6994"
       x="-0.22587802"
       width="1.451756"
       y="-0.2375436"
       height="1.4750872">
      <feGaussianBlur
         inkscape:collect="always"
         stdDeviation="8.6796346"
         id="feGaussianBlur6996" />
    </filter>
    <filter
       inkscape:collect="always"
       style="color-interpolation-filters:sRGB"
       id="filter7584"
       x="-0.66730041"
       width="2.3346008"
       y="-0.6599404"
       height="2.3198808">
      <feGaussianBlur
         inkscape:collect="always"
         stdDeviation="36.708828"
         id="feGaussianBlur7586" />
    </filter>
  </defs>
  <sodipodi:namedview
     id="base"
     pagecolor="#ffffff"
     bordercolor="#666666"
     borderopacity="1.0"
     inkscape:pageopacity="0.0"
     inkscape:pageshadow="2"
     inkscape:zoom="0.52049637"
     inkscape:cx="477.20144"
     inkscape:cy="388.97186"
     inkscape:document-units="mm"
     inkscape:current-layer="layer3"
     showgrid="false"
     inkscape:window-width="1920"
     inkscape:window-height="1001"
     inkscape:window-x="-9"
     inkscape:window-y="-9"
     inkscape:window-maximized="1" />
  <metadata
     id="metadata5">
    <rdf:RDF>
      <cc:Work
         rdf:about="">
        <dc:format>image/svg+xml</dc:format>
        <dc:type
           rdf:resource="http://purl.org/dc/dcmitype/StillImage" />
        <dc:title></dc:title>
      </cc:Work>
    </rdf:RDF>
  </metadata>
  <g
     inkscape:groupmode="layer"
     id="layer3"
     inkscape:label="Layer 3"
     style="display:inline;opacity:1">
    <path
       style="opacity:1;fill:#b01c26;fill-opacity:1;stroke:none;stroke-width:0.17221722;stroke-miterlimit:4;stroke-dasharray:none;stroke-opacity:1"
       id="path7754"
       d="m 103.24089,32.365938 c -1.11417,1.121241 -2.23566,2.234992 -3.301237,3.401024 -0.93719,0.9588 -1.927295,1.880708 -2.696594,2.977901 -0.614371,1.025965 -1.202407,2.062578 -1.861667,3.063382 -0.74954,1.096946 -1.46819,2.201167 -2.267679,3.264789 -0.676106,0.821024 -0.83985,1.817396 -1.088948,2.803359 -0.484313,1.023099 -0.916945,2.067718 -1.370233,3.105788 -0.486949,0.929968 -0.995538,1.850678 -1.512157,2.766148 -0.43583,0.796819 -0.766744,1.619261 -0.950408,2.504074 -0.269674,0.966742 -0.458374,1.949619 -0.722969,2.917305 -0.203021,0.981079 -0.509189,1.936949 -0.714691,2.917381 -0.178727,0.950366 -0.204914,1.918099 -0.22361,2.881476 -0.01163,0.975515 -0.0069,1.951129 -0.0049,2.926684 0.04553,0.848208 0.394895,1.283633 1.134492,1.674899 0.857586,0.210398 1.635942,0.60654 2.44575,0.942025 1.227958,0.548889 2.601755,0.712528 3.934108,0.845178 1.239879,0.09747 2.485202,0.09354 3.72821,0.09367 -10.199281,0.01038 -5.055602,-0.0018 -2.713617,-0.0076 1.021391,-0.0022 2.042795,-0.0033 3.064186,-0.0024 3.081644,2.54e-4 6.163274,3.18e-4 9.244924,-3.44e-4 1.02149,-2.16e-4 2.04299,-2.67e-4 3.06448,-3.05e-4 -1.62865,-0.0062 3.13152,0.0066 1.50092,-1.7e-5 -8.76626,-0.03589 -6.7367,0.25032 -4.60682,-0.164743 0.9096,-0.1645 1.63962,-0.737625 2.37368,-1.249554 0.69786,-0.503021 1.37501,-1.035234 1.98105,-1.64205 0.55305,-0.774287 1.20653,-1.473535 1.78051,-2.231263 0.62627,-0.739041 1.17692,-1.529718 1.71562,-2.331225 0.48683,-0.738761 0.93438,-1.4981 1.39056,-2.254949 0.56396,-0.819688 0.89154,-1.760772 1.18016,-2.699965 0.36968,-0.974815 0.75183,-1.944171 1.01944,-2.95128 0.20111,-1.071069 0.51125,-2.11929 0.86118,-3.151906 0.45573,-0.910969 0.68147,-1.888615 0.94586,-2.860038 0.3354,-1.076393 0.67715,-2.142954 0.87698,-3.252953 0.11082,-1.02674 0.25456,-2.052745 0.54623,-3.047024 0.32738,-0.918221 0.44402,-1.883182 0.71607,-2.815534 0.2518,-0.861952 0.33642,-1.753012 0.53626,-2.626488 0.0333,-0.156312 0.0691,-0.31212 0.0998,-0.468938 0.0733,-0.374703 0.16243,-1.027736 0.17751,-1.027445 6.15225,0.118259 5.9279,-1.640857 6.03981,0.719989 0.0437,1.247266 0.0189,2.484672 -0.13892,3.722965 -0.1238,1.453426 -0.32629,2.86929 -0.70787,4.279361 -0.53547,1.444762 -1.0669,2.889165 -1.53714,4.356233 -0.7507,1.778779 -1.50162,3.550856 -2.16411,5.363654 -0.48575,1.541033 -0.96749,3.081654 -1.51075,4.604951 -0.67715,1.908366 -1.48963,3.764641 -2.3505,5.59944 -0.79967,1.59626 -1.47753,3.243207 -2.08154,4.91813 -0.50444,1.546111 -1.03118,3.08465 -1.4756,4.648626 -0.28953,1.283324 -0.51408,2.580865 -0.88508,3.845709 -0.29373,1.028628 -0.68157,2.024457 -0.90715,3.070543 -0.18338,1.073432 -0.20278,2.156724 -0.39317,3.229016 -0.14578,0.954649 -0.26332,1.897281 -0.61214,2.804875 -0.4241,0.82861 -0.53448,1.74234 -0.73539,2.633121 -0.15009,0.904125 -0.517,1.747027 -0.75849,2.62672 -0.13583,0.826857 -0.31162,1.645393 -0.60526,2.433841 -0.28142,0.70305 -0.54789,1.411772 -0.80884,2.122826 -0.0545,0.121484 -0.10902,0.242968 -0.16351,0.364452 0,0 -5.95005,-0.262711 -5.95005,-0.262711 v 0 c 0.0545,-0.09774 0.10884,-0.195489 0.16325,-0.293233 0.24372,-0.728518 0.54767,-1.434262 0.80886,-2.156243 0.34948,-0.738294 0.46938,-1.560363 0.61,-2.35545 0.22422,-0.882155 0.61699,-1.708185 0.7656,-2.609861 0.22009,-0.914665 0.29456,-1.868703 0.73188,-2.724514 0.3781,-0.859899 0.47705,-1.766545 0.6197,-2.685423 0.19938,-1.076242 0.22238,-2.163858 0.40126,-3.243586 0.21505,-1.06805 0.58527,-2.082112 0.90563,-3.122718 0.4015,-1.253292 0.63132,-2.54862 0.91248,-3.830168 0.43085,-1.584108 0.9983,-3.124827 1.50505,-4.686268 0.58751,-1.700351 1.25351,-3.373453 2.08017,-4.978494 0.88,-1.805081 1.69094,-3.63969 2.33035,-5.541783 0.54531,-1.525733 1.02923,-3.068986 1.52751,-4.609314 0.6632,-1.800818 1.39912,-3.569853 2.13913,-5.341172 0.4683,-1.45856 0.97839,-2.90243 1.53202,-4.332239 0.3849,-1.383641 0.59668,-2.770081 0.69686,-4.201786 0.1613,-1.199744 0.18518,-2.400725 0.10268,-3.609221 -0.22378,-2.274036 -0.16858,-0.462782 5.89479,-0.578391 0.0426,-7.7e-4 -0.0512,0.06869 -0.0627,0.108744 -0.12531,0.435262 -0.12786,0.898625 -0.25672,1.333603 -0.20359,0.885571 -0.2871,1.787166 -0.53169,2.663906 -0.28722,0.933962 -0.41541,1.896707 -0.71907,2.827408 -0.34025,0.953486 -0.43132,1.973104 -0.55785,2.969809 -0.19936,1.127078 -0.52855,2.215318 -0.87081,3.307552 -0.28035,0.975643 -0.45597,1.982436 -0.94658,2.891139 -0.34631,1.018379 -0.68675,2.045819 -0.87483,3.1051 -0.24136,1.020946 -0.59287,2.013226 -1.01266,2.977553 -0.28632,0.976587 -0.59539,1.980845 -1.16372,2.838212 -0.44779,0.77737 -0.93142,1.528482 -1.40739,2.2888 -0.54265,0.804159 -1.04435,1.634868 -1.71219,2.346461 -0.54425,0.809143 -1.29215,1.459933 -1.77895,2.313492 -0.60318,0.664042 -1.29144,1.219238 -2.00372,1.7683 -0.78592,0.506609 -1.49392,1.164373 -2.38987,1.482897 -2.84039,0.568935 -5.76604,0.23691 -8.65386,0.277928 -1.02006,-4.1e-5 -2.04012,-1.11e-4 -3.06018,-3.69e-4 -4.858557,-0.0013 8.11,-0.0018 3.05633,-4.81e-4 -0.1936,4.7e-5 -0.38722,1.66e-4 -0.58083,2.55e-4 -1.01895,0.0012 -2.0379,6.73e-4 -3.05685,0.0024 -3.002981,0.0054 -6.00594,0.02269 -9.008954,0.0053 -1.243368,-0.0088 -2.490324,-0.01792 -3.726695,-0.161235 -1.363292,-0.18201 -2.732325,-0.426503 -3.983878,-1.01087 -0.816675,-0.361129 -1.680787,-0.617455 -2.46241,-1.044718 -0.760124,-0.59317 -1.122509,-1.276388 -1.152365,-2.241622 -0.0019,-0.979575 -0.0066,-1.959207 0.0049,-2.938743 0.01918,-0.998018 0.04776,-1.999986 0.226122,-2.985446 0.200658,-0.994666 0.516755,-1.959395 0.716485,-2.954141 0.262393,-0.95487 0.447176,-1.923797 0.71763,-2.877051 0.180849,-0.945745 0.501369,-1.828235 0.954262,-2.683623 0.50536,-0.905278 1.019523,-1.803588 1.522736,-2.710186 0.447893,-1.010696 0.833613,-2.043882 1.352985,-3.022462 0.307851,-1.035435 0.412477,-2.130035 1.124074,-3.015279 0.786615,-1.063921 1.546029,-2.128264 2.271725,-3.233048 0.66554,-0.996158 1.254658,-2.031038 1.849314,-3.066976 0.74016,-1.150259 1.73902,-2.108743 2.722247,-3.062155 1.055937,-1.157609 2.16121,-2.268262 3.262586,-3.384301 0,0 5.929416,0.402971 5.929416,0.402971 z"
       inkscape:connector-curvature="0" />
    <path
       style="display:inline;opacity:1;fill:#b01c26;fill-opacity:1;stroke:none;stroke-width:0.17221723;stroke-miterlimit:4;stroke-dasharray:none;stroke-opacity:1"
       id="path7754-4"
       d="m 99.463063,219.72762 c -1.11418,1.12125 -2.235669,2.23499 -3.30125,3.40102 -0.937187,0.95881 -1.927293,1.88071 -2.696592,2.97791 -0.614372,1.02596 -1.202407,2.06257 -1.861668,3.06338 -0.749539,1.09695 -1.46819,2.20116 -2.267679,3.26479 -0.676106,0.82102 -0.839849,1.81739 -1.088947,2.80336 -0.484314,1.0231 -0.916945,2.06771 -1.370234,3.10578 -0.486949,0.92997 -0.995538,1.85068 -1.512157,2.76616 -0.43583,0.79682 -0.766744,1.61925 -0.950408,2.50407 -0.269674,0.96674 -0.458373,1.94961 -0.722968,2.9173 -0.203021,0.98108 -0.509189,1.93695 -0.714691,2.91738 -0.178727,0.95037 -0.204915,1.9181 -0.22361,2.88148 -0.01163,0.97552 -0.0069,1.95113 -0.0049,2.92668 0.04553,0.84821 0.394894,1.28363 1.134492,1.6749 0.857586,0.2104 1.635942,0.60654 2.44575,0.94203 1.227957,0.54889 2.601754,0.71253 3.934108,0.84518 1.239878,0.0975 2.485201,0.0935 3.72821,0.0937 -10.199281,0.0104 -5.055602,-0.002 -2.713618,-0.008 1.021391,-0.002 2.042795,-0.003 3.064186,-0.002 3.081645,2.2e-4 6.163283,2.2e-4 9.244923,-4.2e-4 1.02149,-2.1e-4 2.04299,-2.1e-4 3.06448,-2.1e-4 -1.62865,-0.006 3.13152,0.006 1.50093,-2e-5 -8.766267,-0.0359 -6.73671,0.25032 -4.60683,-0.16474 0.9096,-0.1645 1.63962,-0.73763 2.37369,-1.24955 0.69785,-0.50303 1.37501,-1.03524 1.98104,-1.64206 0.55306,-0.77428 1.20653,-1.47353 1.78051,-2.23126 0.62628,-0.73904 1.17692,-1.52972 1.71562,-2.33122 0.48683,-0.73876 0.93438,-1.49811 1.39056,-2.25496 0.56397,-0.81969 0.89154,-1.76076 1.18016,-2.69996 0.36968,-0.97481 0.75184,-1.94417 1.01944,-2.95128 0.20111,-1.07107 0.51125,-2.11929 0.86118,-3.15191 0.45574,-0.91096 0.68147,-1.88861 0.94587,-2.86004 0.33539,-1.07639 0.67714,-2.14295 0.87698,-3.25295 0.11081,-1.02674 0.25455,-2.05275 0.54622,-3.04702 0.32738,-0.91822 0.44402,-1.88318 0.71607,-2.81553 0.25181,-0.86196 0.33642,-1.75302 0.53626,-2.6265 0.0333,-0.15631 0.0691,-0.31211 0.0998,-0.46893 0.0733,-0.3747 0.16243,-1.02773 0.17751,-1.02745 6.15225,0.11827 5.9279,-1.64085 6.03981,0.71999 0.0437,1.24727 0.0189,2.48467 -0.13892,3.72297 -0.1238,1.45342 -0.32629,2.86929 -0.70787,4.27936 -0.53547,1.44476 -1.06689,2.88917 -1.53713,4.35623 -0.75071,1.77878 -1.50162,3.55086 -2.16412,5.36366 -0.48574,1.54103 -0.96748,3.08165 -1.51075,4.60495 -0.67714,1.90836 -1.48962,3.76463 -2.3505,5.59943 -0.79967,1.59627 -1.47753,3.24322 -2.08154,4.91814 -0.50443,1.54611 -1.03117,3.08465 -1.4756,4.64862 -0.28953,1.28333 -0.51407,2.58087 -0.88508,3.84571 -0.29373,1.02863 -0.68156,2.02446 -0.90715,3.07054 -0.18338,1.07344 -0.20278,2.15673 -0.39317,3.22902 -0.14577,0.95465 -0.26332,1.89728 -0.61213,2.80488 -0.42411,0.82861 -0.53448,1.74234 -0.7354,2.63312 -0.15008,0.90412 -0.517,1.74703 -0.75849,2.62672 -0.13583,0.82685 -0.31161,1.64539 -0.60525,2.43384 -0.28143,0.70305 -0.5479,1.41177 -0.80885,2.12282 -0.0545,0.12149 -0.10902,0.24297 -0.16351,0.36446 0,0 -5.95004,-0.26271 -5.95004,-0.26271 v 0 c 0.0544,-0.0977 0.10883,-0.1955 0.16325,-0.29323 0.24371,-0.72852 0.54766,-1.43427 0.80886,-2.15625 0.34947,-0.73829 0.46938,-1.56036 0.60999,-2.35545 0.22422,-0.88215 0.61699,-1.70819 0.7656,-2.60986 0.22009,-0.91467 0.29457,-1.8687 0.73188,-2.72452 0.37811,-0.8599 0.47705,-1.76654 0.6197,-2.68541 0.19938,-1.07625 0.22238,-2.16386 0.40126,-3.24359 0.21505,-1.06805 0.58528,-2.08212 0.90563,-3.12272 0.40151,-1.2533 0.63132,-2.54862 0.91248,-3.83017 0.43085,-1.58411 0.9983,-3.12483 1.50505,-4.68627 0.58751,-1.70035 1.25352,-3.37345 2.08018,-4.9785 0.87999,-1.80507 1.69093,-3.63968 2.33034,-5.54177 0.54531,-1.52574 1.02923,-3.06899 1.52751,-4.60932 0.6632,-1.80081 1.39912,-3.56985 2.13913,-5.34117 0.4683,-1.45856 0.9784,-2.90243 1.53202,-4.33224 0.38491,-1.38364 0.59669,-2.77008 0.69686,-4.20179 0.1613,-1.19974 0.18518,-2.40072 0.10269,-3.60922 -0.22379,-2.27403 -0.16858,-0.46278 5.89479,-0.57839 0.0426,-7.7e-4 -0.0512,0.0687 -0.0627,0.10874 -0.12531,0.43527 -0.12786,0.89863 -0.25672,1.3336 -0.20359,0.88558 -0.2871,1.78717 -0.53168,2.66391 -0.28722,0.93397 -0.41541,1.89671 -0.71908,2.82741 -0.34025,0.95349 -0.43132,1.97311 -0.55785,2.96981 -0.19936,1.12708 -0.52854,2.21532 -0.87081,3.30756 -0.28035,0.97563 -0.45597,1.98243 -0.94658,2.89113 -0.34631,1.01838 -0.68675,2.04582 -0.87483,3.1051 -0.24136,1.02095 -0.59286,2.01323 -1.01266,2.97756 -0.28632,0.97658 -0.59539,1.98084 -1.16372,2.8382 -0.44779,0.77738 -0.93142,1.52849 -1.40739,2.28881 -0.54265,0.80416 -1.04434,1.63487 -1.71219,2.34646 -0.54425,0.80914 -1.29215,1.45993 -1.77895,2.31349 -0.60318,0.66404 -1.29144,1.21924 -2.00372,1.7683 -0.78592,0.50661 -1.49391,1.16437 -2.38987,1.4829 -2.84039,0.56893 -5.76604,0.23691 -8.65386,0.27793 -1.020047,-4e-5 -2.040107,-1.1e-4 -3.060172,-4.3e-4 -4.858564,-0.002 8.109992,-0.002 3.056322,-4.2e-4 -0.1936,5e-5 -0.38721,1.6e-4 -0.58082,2.1e-4 -1.018957,0.002 -2.037903,6.4e-4 -3.056856,0.002 -3.002984,0.006 -6.005942,0.0227 -9.008957,0.006 -1.243367,-0.009 -2.490323,-0.0179 -3.726694,-0.16124 -1.363292,-0.18201 -2.732326,-0.4265 -3.983878,-1.01087 -0.816675,-0.36113 -1.680788,-0.61745 -2.46241,-1.04471 -0.760125,-0.59318 -1.122509,-1.27639 -1.152365,-2.24163 -0.0019,-0.97957 -0.0066,-1.9592 0.0049,-2.93874 0.01918,-0.99802 0.04776,-1.99999 0.226121,-2.98545 0.200658,-0.99466 0.516756,-1.95939 0.716486,-2.95414 0.262392,-0.95487 0.447176,-1.92379 0.717629,-2.87705 0.180849,-0.94574 0.50137,-1.82823 0.954262,-2.68362 0.50536,-0.90528 1.019523,-1.80359 1.522736,-2.71019 0.447894,-1.0107 0.833614,-2.04388 1.352986,-3.02246 0.307851,-1.03544 0.412476,-2.13003 1.124074,-3.01528 0.786615,-1.06392 1.546028,-2.12826 2.271725,-3.23305 0.66554,-0.99615 1.254658,-2.03104 1.849313,-3.06698 0.740161,-1.15023 1.739021,-2.10871 2.722248,-3.06212 1.055936,-1.15761 2.16121,-2.26826 3.262586,-3.3843 0,0 5.929417,0.40297 5.929417,0.40297 z"
       inkscape:connector-curvature="0" />
  </g>
  <g
     inkscape:groupmode="layer"
     id="layer2"
     inkscape:label="Layer 2">
    <ellipse
       style="fill:#f9ab36;fill-opacity:1;stroke:#3d3316;stroke-width:0.354;stroke-miterlimit:4;stroke-dasharray:none;stroke-opacity:1;filter:url(#filter7584)"
       id="path6039"
       cx="108.67805"
       cy="148.60182"
       rx="66.013138"
       ry="66.749352"
       transform="matrix(0.66264663,0,0,0.62215391,34.272118,60.680853)" />
  </g>
  <g
     inkscape:label="Layer 1"
     inkscape:groupmode="layer"
     id="layer1"
     style="display:inline">
    <ellipse
       style="fill:#000000;fill-opacity:1;stroke:#190000;stroke-width:0.26490259;stroke-miterlimit:4;stroke-dasharray:none;stroke-opacity:1;filter:url(#filter6994)"
       id="path32"
       cx="111.125"
       cy="154.125"
       rx="46.113098"
       ry="43.845234"
       transform="matrix(0.87890434,-0.02011141,0.0211136,0.83718573,3.0603632,26.2296)" />
  </g>
  <g
     inkscape:groupmode="layer"
     id="layer4"
     inkscape:label="Layer 4"
     style="display:inline" />
</svg>
